<?xml version="1.0" standalone="no"?>
<!DOCTYPE svg PUBLIC "-//W3C//DTD SVG 20010904//EN"
 "http://www.w3.org/TR/2001/REC-SVG-20010904/DTD/svg10.dtd">
<svg version="1.0" xmlns="http://www.w3.org/2000/svg"
 width="400.000000pt" height="400.000000pt" viewBox="0 0 400.000000 400.000000"
 preserveAspectRatio="xMidYMid meet">
<metadata>
Created by potrace 1.14, written by Peter Selinger 2001-2017
</metadata>
<g transform="translate(0.000000,400.000000) scale(0.100000,-0.100000)"
fill="#000000" stroke="none">
<path d="M2418 3915 c-1 -2 -21 -5 -43 -6 -22 -2 -58 -12 -80 -23 -35 -17 -64
-20 -230 -22 -341 -3 -538 -61 -773 -228 -83 -59 -95 -65 -108 -51 -9 8 -53
37 -99 65 -207 122 -376 137 -463 41 -40 -44 -55 -77 -76 -167 -13 -58 -15
-123 -12 -399 2 -181 5 -355 7 -385 l4 -55 -40 -6 c-115 -16 -174 -105 -270
-404 -34 -105 -39 -132 -39 -215 0 -57 7 -121 18 -160 9 -36 26 -101 37 -145
32 -124 122 -290 171 -316 30 -16 163 -38 234 -39 l61 0 36 -52 c44 -63 131
-155 178 -188 19 -14 40 -30 47 -37 7 -7 19 -13 25 -13 7 -1 -26 -17 -73 -36
-47 -20 -86 -40 -88 -45 -2 -5 -9 -9 -15 -9 -7 0 -25 -11 -41 -25 -16 -14 -32
-25 -36 -25 -9 0 -125 -113 -160 -155 -14 -16 -40 -52 -57 -80 l-33 -50 56
-53 c179 -169 435 -319 697 -411 62 -21 126 -42 142 -47 17 -4 32 -8 35 -9
157 -45 390 -69 585 -61 83 3 161 7 175 10 14 2 48 7 75 11 28 4 79 14 115 22
36 8 70 16 75 17 41 10 111 31 170 52 39 14 75 27 82 28 7 1 16 5 19 9 4 4 16
7 26 7 10 0 18 5 18 10 0 6 6 10 14 10 8 0 45 16 83 36 37 20 82 43 98 51 72
37 274 176 327 225 7 7 40 38 73 68 33 30 74 71 92 91 l33 36 -53 52 c-77 76
-202 165 -260 186 -41 15 -47 20 -35 29 41 30 138 119 138 127 0 14 38 49 53
49 7 0 17 -4 22 -9 6 -5 19 -11 30 -13 11 -1 23 -7 27 -13 5 -6 8 -4 8 5 0 10
3 11 8 4 12 -18 155 -79 177 -75 18 3 35 18 35 31 0 28 -54 47 -79 27 -14 -11
-14 -10 -2 6 12 15 11 17 -13 18 -14 1 -30 3 -36 4 -5 1 -15 3 -21 4 -5 0 -7
7 -3 14 5 8 2 7 -9 -2 -15 -12 -17 -12 -11 4 6 14 4 16 -7 9 -20 -12 -40 -14
-33 -3 3 5 10 6 16 3 7 -5 8 -2 4 5 -5 7 -14 10 -22 7 -7 -3 -16 -1 -19 4 -3
4 -16 7 -30 5 -14 -1 -24 0 -23 4 31 65 96 165 110 169 103 27 282 160 310
232 32 81 50 415 28 530 -4 25 -10 61 -13 80 -14 97 -54 219 -92 280 -49 78
-126 129 -238 160 -52 14 -60 25 -70 95 -22 157 -150 427 -273 575 -100 122
-230 231 -354 299 -27 15 -78 54 -112 88 -35 33 -81 72 -103 86 -39 25 -120
59 -127 52z m-293 -333 c-23 -125 -31 -186 -41 -300 -4 -42 -8 -84 -10 -92 -1
-8 -3 -24 -3 -36 -1 -20 -6 -21 -98 -21 -89 0 -138 -3 -270 -18 -34 -4 -44 -1
-53 14 -5 11 -16 25 -23 33 -7 7 -20 23 -29 36 -9 13 -51 62 -94 109 -44 47
-80 89 -81 92 -8 19 194 115 327 156 70 21 200 42 295 48 22 1 50 3 63 4 19 2
22 -1 17 -25z"/>
<path d="M770 1283 c0 -6 -8 -10 -17 -9 -10 2 -24 -4 -31 -13 -8 -9 -11 -10
-7 -3 8 15 -11 16 -20 1 -4 -6 -13 -8 -21 -5 -9 3 -14 -1 -15 -12 0 -10 -3
-12 -6 -4 -2 6 -9 12 -14 12 -6 0 -8 -3 -6 -7 3 -5 -13 -9 -35 -10 -37 -2 -68
-16 -68 -32 0 -4 9 -17 19 -28 11 -12 17 -23 14 -26 -11 -12 44 7 67 23 14 9
37 20 53 24 15 3 27 11 27 16 0 5 9 7 20 5 22 -4 26 4 10 23 -7 9 -7 9 2 2 15
-12 75 -13 82 -1 3 4 -3 16 -14 26 -11 10 -20 14 -20 9 0 -5 -5 -2 -10 6 -5 8
-10 10 -10 3z"/>
<path d="M872 1173 c-6 -3 -9 -10 -5 -16 4 -7 0 -8 -12 -4 -11 5 -23 1 -32
-10 -9 -11 -12 -12 -7 -3 6 12 4 13 -7 3 -7 -7 -26 -13 -41 -13 -15 0 -28 -4
-28 -10 0 -5 -7 -6 -17 -3 -11 5 -14 3 -8 -6 6 -10 3 -11 -11 -3 -12 5 -32 6
-51 0 -39 -10 -45 -44 -13 -73 19 -18 21 -18 60 1 22 10 40 24 40 30 0 7 6 12
13 11 34 -1 48 4 41 15 -5 8 -2 9 10 5 20 -8 116 13 116 25 0 5 5 6 10 3 6 -3
10 -2 10 4 0 14 -53 49 -68 44z"/>
<path d="M3267 1152 c-19 -21 -13 -34 11 -25 10 4 13 2 8 -5 -7 -11 7 -16 41
-15 7 1 10 -3 8 -8 -3 -4 15 -17 40 -28 25 -11 59 -30 75 -41 18 -13 41 -20
57 -18 24 3 28 8 28 33 0 26 -4 30 -27 30 -14 -1 -25 2 -22 6 2 4 -3 10 -12
13 -10 4 -13 2 -8 -6 4 -6 -3 -4 -17 5 -13 9 -31 17 -41 17 -10 0 -18 5 -18
11 0 8 -11 9 -32 5 -30 -6 -31 -5 -13 8 19 13 18 14 -13 12 -18 -1 -36 2 -39
7 -4 6 -1 7 7 2 9 -5 11 -4 6 3 -10 17 -20 15 -39 -6z m169 -64 c4 -6 3 -8 -4
-4 -6 3 -13 2 -17 -4 -3 -5 -11 -10 -18 -10 -6 0 -2 7 9 15 23 18 21 17 30 3z"/>
</g>
</svg>
